<?xml version="1.0" encoding="UTF-8"?>
<!-- Generator: Adobe Illustrator 26.0.1, SVG Export Plug-In . SVG Version: 6.00 Build 0)  -->
<svg xmlns="http://www.w3.org/2000/svg" xmlns:xlink="http://www.w3.org/1999/xlink" version="1.1" id="Capa_1" x="0px" y="0px" viewBox="0 0 512 512" style="enable-background:new 0 0 512 512;" xml:space="preserve" width="512" height="512">
<g>
	<path d="M511.82,80.652c-1.18-10.92-7.91-20.56-17.95-25.4l-105.5-50.77c-11.91-5.7-26.06-3.48-35.65,5.51   c-0.24,0.21-0.48,0.45-0.72,0.68l-170.08,188.04l-99.25-81.38l-8.7-7.2c-6.11-5.22-14.65-6.56-22.08-3.46l-38.77,16   c-7.91,3.29-13.07,11-13.12,19.57v227.52c0.05,8.57,5.21,16.28,13.12,19.57l38.77,16.27c7.43,3.1,15.97,1.76,22.08-3.47l8.7-7.46   l99.25-81.38L352,501.332c0.23,0.23,0.46,0.45,0.7,0.66c9.59,9,23.75,11.23,35.67,5.53l105.5-50.77   c10.04-4.84,16.77-14.48,17.95-25.4c0.12-1.12,0.18-2.26,0.18-3.4v-343.9C512,82.912,511.94,81.772,511.82,80.652z M64,329.092   v-146.18l66.11,73.09L64,329.092z M251.79,256.002L384,147.602v216.8L251.79,256.002z"/>
	<path d="M82.67,117.332l-8.7-7.2c-6.11-5.22-14.65-6.56-22.08-3.46c7.38-3.18,15.91-1.94,22.08,3.2L82.67,117.332z"/>
	<path d="M511.82,431.352c-1.16,10.94-7.89,20.61-17.95,25.45l-105.5,50.72l105.5-50.77   C503.91,451.912,510.64,442.272,511.82,431.352z"/>
	<path d="M493.87,55.252l-105.5-50.77l105.5,50.72c10.06,4.84,16.79,14.51,17.95,25.45C510.64,69.732,503.91,60.092,493.87,55.252z"/>
</g>















</svg>
